<svg id="visual" viewBox="0 0 900 600" width="900" height="600" xmlns="http://www.w3.org/2000/svg" xmlns:xlink="http://www.w3.org/1999/xlink" version="1.1"><rect width="900" height="600" fill="#fff"></rect><g><g transform="translate(64 375)"><path d="M0 -91.7L79.4 -45.8L79.4 45.8L0 91.7L-79.4 45.8L-79.4 -45.8Z" fill="none" stroke="#29a67b" stroke-width="2"></path></g><g transform="translate(499 146)"><path d="M0 -86L74.5 -43L74.5 43L0 86L-74.5 43L-74.5 -43Z" fill="none" stroke="#29a67b" stroke-width="2"></path></g><g transform="translate(168 46)"><path d="M0 -60L52 -30L52 30L0 60L-52 30L-52 -30Z" fill="none" stroke="#29a67b" stroke-width="2"></path></g><g transform="translate(708 1)"><path d="M0 -64L55.4 -32L55.4 32L0 64L-55.4 32L-55.4 -32Z" stroke="#29a67b" fill="none" stroke-width="2"></path></g><g transform="translate(178 586)"><path d="M0 -45L39 -22.5L39 22.5L0 45L-39 22.5L-39 -22.5Z" stroke="#29a67b" fill="none" stroke-width="2"></path></g><g transform="translate(837 484)"><path d="M0 -55L47.6 -27.5L47.6 27.5L0 55L-47.6 27.5L-47.6 -27.5Z" stroke="#29a67b" fill="none" stroke-width="2"></path></g><g transform="translate(264 298)"><path d="M0 -74L64.1 -37L64.1 37L0 74L-64.1 37L-64.1 -37Z" stroke="#29a67b" fill="none" stroke-width="2"></path></g><g transform="translate(348 2)"><path d="M0 -58L50.2 -29L50.2 29L0 58L-50.2 29L-50.2 -29Z" stroke="#29a67b" fill="none" stroke-width="2"></path></g></g></svg>